<svg width="143" height="66" viewBox="0 0 143 66" fill="none" xmlns="http://www.w3.org/2000/svg">
<path d="M19.7549 1.05638L22.2256 19.2956L14.5503 40.6711L4.05849 45.4753L19.7549 1.05638Z" fill="#FF6F61"/>
<path d="M19.7829 0.929558L18.0376 21.9046L29.0042 55.2244L37.8561 55.2244L19.7829 0.929558Z" fill="#FF6F61"/>
<path d="M21.5581 39.1196L22.4732 41.824L2.09521 51.1584L3.39786 47.5163L21.5581 39.1196Z" fill="#FF6F61"/>
<path d="M22.9074 43.2661L23.7794 45.9903L3.72615 55.2167L0.65194 55.2167L1.40481 53.1241L22.9074 43.2661Z" fill="#FF6F61"/>
<path d="M42.96 65.94L59.34 29.16H64.5L48.48 65.94H42.96ZM49.08 54.18L37.14 29.16H43.44L53.46 51.36L49.08 54.18ZM72.9084 18.24H78.4884V29.28H85.3284V33.66H78.4884V54H72.9084V33.66H68.3484V29.28H72.9084V18.24ZM89.9109 41.34C89.9109 38.86 90.4909 36.62 91.6509 34.62C92.8509 32.62 94.4909 31.04 96.5709 29.88C98.6509 28.72 101.011 28.14 103.651 28.14C106.371 28.14 108.751 28.72 110.791 29.88C112.831 31.04 114.411 32.62 115.531 34.62C116.651 36.62 117.211 38.86 117.211 41.34C117.211 43.82 116.651 46.08 115.531 48.12C114.411 50.12 112.811 51.7 110.731 52.86C108.691 54.02 106.311 54.6 103.591 54.6C100.951 54.6 98.5909 54.06 96.5109 52.98C94.4709 51.86 92.8509 50.32 91.6509 48.36C90.4909 46.36 89.9109 44.02 89.9109 41.34ZM95.4909 41.4C95.4909 43 95.8509 44.46 96.5709 45.78C97.2909 47.06 98.2509 48.08 99.4509 48.84C100.691 49.6 102.051 49.98 103.531 49.98C105.091 49.98 106.471 49.6 107.671 48.84C108.911 48.08 109.871 47.06 110.551 45.78C111.231 44.46 111.571 43 111.571 41.4C111.571 39.8 111.231 38.36 110.551 37.08C109.871 35.76 108.911 34.72 107.671 33.96C106.471 33.16 105.091 32.76 103.531 32.76C102.011 32.76 100.631 33.16 99.3909 33.96C98.1909 34.76 97.2309 35.82 96.5109 37.14C95.8309 38.42 95.4909 39.84 95.4909 41.4ZM129.746 29.16L130.286 36.36L129.986 35.4C130.626 33.88 131.546 32.6 132.746 31.56C133.986 30.48 135.266 29.66 136.586 29.1C137.946 28.5 139.126 28.2 140.126 28.2L139.826 33.72C137.946 33.6 136.286 33.96 134.846 34.8C133.446 35.64 132.326 36.76 131.486 38.16C130.686 39.56 130.286 41.06 130.286 42.66V54H124.766V29.16H129.746Z" fill="#151A32"/>
</svg>
